#!OML:ASF F:\VICON\USERDATA\Patient Classification 1\PLAYGROUND\JustinFriday\JustinFriday.ASF
:FULLY-SPECIFIED
:DEGREES
1344
root 13.4131 26.9996 41.0467 -338.425 -174.64 4.91239
lowerback 14.5244 -3.88413 6.45684
upperback 4.79956 -4.83583 -1.25519
thorax -3.632 -2.61904 -4.08681
lowerneck 7.37165 -7.25815 -14.2755
upperneck -1.00255 -10.6908 12.7446
head -0.0240252 -5.5715 6.25791
rclavicle 6.67916e-014 4.45278e-014
rhumerus 127.656 -14.5284 -95.0422
rradius 115.768
rwrist 15.6111
rhand -30.7126 -21.4175
rfingers 7.12502
rthumb -4.00565 -51.3596
lclavicle 6.67916e-014 4.45278e-014
lhumerus 122.782 32.6603 74.6777
lradius 112.774
lwrist -24.4293
lhand -18.6778 2.95396
lfingers 7.12502
lthumb 7.61614 32.7968
rfemur -15.637 -2.33311 29.8584
rtibia 28.574
rfoot -36.0563 -12.2773
rtoes 5.33903
lfemur -15.5912 2.29836 -13.6524
ltibia 30.8353
lfoot -33.5458 -2.0933
ltoes 0.0392872
1345
root 13.4083 27.0142 41.1012 -338.475 -174.697 4.74604
lowerback 14.6232 -3.87924 6.30286
upperback 4.87401 -4.861 -1.26208
thorax -3.5982 -2.6344 -3.99954
lowerneck 7.47375 -7.17132 -14.4021
upperneck -1.14816 -10.5896 12.7514
head -0.0899382 -5.52242 6.29134
rclavicle 1.90833e-014 5.56597e-015
rhumerus 127.453 -14.4034 -94.9023
rradius 115.805
rwrist 15.6887
rhand -30.6531 -21.5685
rfingers 7.12502
rthumb -3.94811 -51.5117
lclavicle 1.90833e-014 5.56597e-015
lhumerus 122.556 32.6192 74.6392
lradius 112.787
lwrist -24.6438
lhand -18.5907 2.93005
lfingers 7.12502
lthumb 7.7002 32.7699
rfemur -15.7805 -2.53595 29.6509
rtibia 28.5502
rfoot -35.9235 -11.9988
rtoes 6.12343
lfemur -15.7118 2.22179 -13.8706
ltibia 30.8241
lfoot -33.7154 -2.15236
ltoes 0.0874443
1346
root 13.4057 27.0288 41.1576 -338.497 -174.689 5.03066
lowerback 14.6266 -3.87669 6.55175
upperback 4.96386 -4.83345 -1.15543
thorax -3.50864 -2.62155 -4.03542
lowerneck 7.41747 -7.12399 -14.415
upperneck -1.11513 -10.5224 12.6043
head -0.0878021 -5.48375 6.24604
rclavicle -1.35174e-014 -1.43125e-014
rhumerus 127.252 -14.248 -94.7943
rradius 115.901
rwrist 15.6796
rhand -30.528 -21.5731
rfingers 7.12502
rthumb -3.8273 -51.5184
lclavicle -1.35174e-014 -1.43125e-014
lhumerus 122.248 32.6504 74.589
lradius 112.787
lwrist -24.7702
lhand -18.9419 2.76835
lfingers 7.12502
lthumb 7.36122 32.6203
rfemur -15.9912 -2.51065 29.946
rtibia 28.559
rfoot -35.7192 -11.8684
rtoes 6.69045
lfemur -15.9263 2.38808 -13.5917
ltibia 30.8178
lfoot -33.8388 -2.27875
ltoes -0.158996
1347
root 13.4084 27.0392 41.2185 -338.551 -174.791 5.2569
lowerback 14.6983 -3.82967 6.61034
upperback 5.06909 -4.77584 -1.05091
thorax -3.42242 -2.59589 -3.96899
lowerneck 7.61687 -7.17338 -14.5516
upperneck -1.30622 -10.6175 12.6105
head -0.155155 -5.53522 6.28142
rclavicle -1.19271e-014 6.36111e-015
rhumerus 127.095 -14.0902 -94.7035
rradius 115.936
rwrist 15.5662
rhand -30.5163 -21.3156
rfingers 7.12502
rthumb -3.81606 -51.2611
lclavicle -1.19271e-014 6.36111e-015
lhumerus 121.939 32.6906 74.526
lradius 112.792
lwrist -24.8048
lhand -19.2687 2.53369
lfingers 7.12502
lthumb 7.04574 32.3964
rfemur -16.1563 -2.27067 30.1468
rtibia 28.5757
rfoot -35.5426 -11.8906
rtoes 7.91055
lfemur -16.0777 2.60073 -13.4049
ltibia 30.7976
lfoot -33.7988 -2.17229
ltoes -0.936651
1348
root 13.4068 27.0468 41.2864 -338.693 -174.759 5.13619
lowerback 14.9727 -3.85204 6.48977
upperback 5.1463 -4.82374 -1.01593
thorax -3.48083 -2.62735 -3.84091
lowerneck 7.88586 -7.1562 -14.9441
upperneck -1.4853 -10.6533 12.9127
head -0.208316 -5.56492 6.453
rclavicle -3.18055e-015 -1.59028e-014
rhumerus 126.879 -14.0472 -94.486
rradius 115.836
rwrist 15.2971
rhand -30.7337 -20.9671
rfingers 7.12502
rthumb -4.02598 -50.9088
lclavicle -3.18055e-015 -1.59028e-014
lhumerus 121.661 32.6398 74.4938
lradius 112.833
lwrist -24.8012
lhand -19.0777 2.46636
lfingers 7.12502
lthumb 7.23013 32.3228
rfemur -16.2296 -2.19543 29.9992
rtibia 28.5874
rfoot -35.5568 -12.0163
rtoes 9.07064
lfemur -16.1472 2.3743 -13.543
ltibia 30.7769
lfoot -33.6613 -2.18687
ltoes -0.975047
1349
root 13.4039 27.0558 41.3425 -338.506 -174.978 5.16023
lowerback 14.7053 -3.75303 6.40548
upperback 5.19316 -4.72525 -0.979774
thorax -3.26785 -2.57289 -3.79359
lowerneck 8.146 -7.03705 -15.2407
upperneck -1.74874 -10.5388 13.1354
head -0.315723 -5.51691 6.59149
rclavicle 3.10104e-014 2.06736e-014
rhumerus 126.629 -14.021 -94.2367
rradius 115.784
rwrist 15.1608
rhand -30.8907 -20.8108
rfingers 7.12502
rthumb -4.17756 -50.7496
lclavicle 3.10104e-014 2.06736e-014
lhumerus 121.406 32.6027 74.436
lradius 112.839
lwrist -24.7552
lhand -18.9221 2.48367
lfingers 7.12502
lthumb 7.38033 32.3349
rfemur -16.6034 -2.22005 29.9528
rtibia 28.5612
rfoot -35.5619 -11.7005
rtoes 9.41502
lfemur -16.4928 2.83033 -13.6211
ltibia 30.7657
lfoot -33.6851 -2.49241
ltoes -0.675305
1350
root 13.4014 27.0692 41.4039 -338.531 -175.063 5.28746
lowerback 14.6966 -3.70879 6.46446
upperback 5.29205 -4.67554 -0.89477
thorax -3.14843 -2.54955 -3.75122
lowerneck 8.50312 -6.95809 -15.2732
upperneck -2.17272 -10.4648 12.9205
head -0.51815 -5.47915 6.56102
rclavicle -2.22639e-014 1.51076e-014
rhumerus 126.343 -13.9389 -93.9928
rradius 115.817
rwrist 15.1792
rhand -31.0303 -20.6647
rfingers 7.12502
rthumb -4.31238 -50.6008
lclavicle -2.22639e-014 1.51076e-014
lhumerus 121.121 32.6066 74.3221
lradius 112.755
lwrist -24.7162
lhand -19.0148 2.33176
lfingers 7.12502
lthumb 7.29089 32.1862
rfemur -16.7822 -2.18794 30.0372
rtibia 28.5129
rfoot -35.3666 -11.6522
rtoes 9.17053
lfemur -16.6573 2.85221 -13.5469
ltibia 30.7517
lfoot -33.8167 -2.21756
ltoes -0.472468
